<?xml version="1.0" encoding="UTF-8" standalone="no"?>
<!-- Created with Inkscape (http://www.inkscape.org/) -->

<svg
   width="36.506432mm"
   height="36.793552mm"
   viewBox="0 0 36.506432 36.793552"
   version="1.1"
   id="svg5"
   inkscape:version="1.1.2 (0a00cf5339, 2022-02-04)"
   sodipodi:docname="icon.svg"
   xmlns:inkscape="http://www.inkscape.org/namespaces/inkscape"
   xmlns:sodipodi="http://sodipodi.sourceforge.net/DTD/sodipodi-0.dtd"
   xmlns="http://www.w3.org/2000/svg"
   xmlns:svg="http://www.w3.org/2000/svg">
  <sodipodi:namedview
     id="namedview7"
     pagecolor="#ffffff"
     bordercolor="#666666"
     borderopacity="1.0"
     inkscape:pageshadow="2"
     inkscape:pageopacity="0.0"
     inkscape:pagecheckerboard="0"
     inkscape:document-units="mm"
     showgrid="false"
     inkscape:snap-global="false"
     inkscape:zoom="3.1750591"
     inkscape:cx="84.722831"
     inkscape:cy="79.99851"
     inkscape:window-width="1920"
     inkscape:window-height="1011"
     inkscape:window-x="0"
     inkscape:window-y="0"
     inkscape:window-maximized="1"
     inkscape:current-layer="layer1" />
  <defs
     id="defs2" />
  <g
     inkscape:label="Capa 1"
     inkscape:groupmode="layer"
     id="layer1"
     transform="translate(-83.912296,-127.96382)">
    <rect
       style="fill:#68aca9;fill-opacity:1;stroke:#433455;stroke-width:2.11001;stroke-linecap:square;stroke-linejoin:miter;stroke-miterlimit:4;stroke-dasharray:none;stroke-opacity:1;paint-order:markers stroke fill"
       id="rect29893"
       width="20.004791"
       height="20.004791"
       x="165.60159"
       y="21.117577"
       transform="rotate(45)" />
    <path
       style="fill:#000000;stroke-width:0.763659"
       id="path12507"
       d="" />
    <path
       style="fill:#000000;stroke-width:0.763659"
       id="path12135"
       d="" />
    <path
       style="fill:#000000;stroke-width:0.763659"
       id="path11217"
       d="" />
    <path
       style="fill:#000000;stroke-width:0.763659"
       id="path5347"
       d="" />
    <path
       style="fill:#000000;stroke-width:0.763659"
       id="path5309"
       d="" />
    <path
       style="fill:#000000;stroke-width:0.763659"
       id="path1025"
       d="" />
    <path
       id="path29401"
       style="fill:#c5ccb8;fill-opacity:1;stroke:#433455;stroke-width:1.70599;stroke-linecap:square;stroke-linejoin:miter;stroke-miterlimit:4;stroke-dasharray:none;stroke-opacity:1;paint-order:markers stroke fill"
       d="m 87.872455,137.75058 v 0.42569 0.42569 h -0.851961 -0.851387 v 0.4257 0.42569 h -0.425693 -0.425693 v 1.261 1.26099 h 0.425693 0.425693 v 0.42627 0.42569 h 2.538648 2.538074 v 0.42569 0.4257 h 0.851386 0.851961 v 0.42569 0.42569 h -0.851961 -0.851386 v 0.42627 0.42569 h -1.686687 -1.686687 v -0.42569 -0.42627 h -0.425694 -0.426267 v -0.42569 -0.42569 h -0.851387 -0.851386 v 0.85138 0.85196 h 0.425693 0.425693 v 0.4257 0.42569 h 0.425694 0.425693 v 0.42569 0.42627 h 2.538648 2.538073 v -0.42627 -0.42569 h 0.851961 0.851386 v -0.42569 -0.4257 h 0.425694 0.425693 v -1.70334 -1.70335 h -0.851387 -0.851386 v -0.40903 -0.40961 h -2.964341 -2.964341 v -0.42569 -0.4257 h 0.426267 0.425694 v -0.42569 -0.42627 h 2.11238 2.11238 v 0.42627 0.42569 h 1.277654 1.27708 v -0.85196 -0.85139 h -0.851387 -0.851386 v -0.42569 -0.42569 h -2.538648 z m 15.262915,0 v 1.70277 1.70335 h 0.42569 0.42569 v 2.11295 2.11238 h 0.4257 0.42569 v 0.4257 0.42569 h -0.85139 -0.85138 v 4.66769 4.66711 h 0.85138 0.85139 v -1.68668 -1.68669 h 0.85196 0.85139 v 0.40903 0.40961 h 0.42569 0.42569 v 0.42569 0.4257 h 0.42627 0.42569 v 0.42569 0.42627 h 0.4257 0.42569 v 0.42569 0.42569 h 0.8353 0.8353 v -0.85138 -0.85196 h -0.40961 -0.4096 v -0.4257 -0.42569 h -0.4257 -0.42569 v -0.40961 -0.40903 h -0.42569 -0.4257 v -0.42627 -0.42569 h -0.42569 -0.42627 v -0.4257 -0.42569 h 0.85196 0.85139 v -0.42569 -0.4257 h 0.8353 0.8353 v -0.85196 -0.85138 h -1.26099 -1.261 v 0.42569 0.42569 h -0.85196 -0.85138 v 0.4257 0.42626 h -0.85139 -0.85196 v -0.85196 -0.85138 h 0.42627 0.42569 v -0.4257 -0.42569 h 0.42569 0.4257 v -1.27765 -1.27766 h -0.4257 -0.42569 v -0.85138 -0.85139 h 0.42569 0.4257 v 0.42569 0.4257 h 0.42569 0.42569 v 0.42569 0.42569 h 0.42627 0.42569 v 0.42627 0.42569 h 0.4257 0.42569 v 0.4257 0.42569 h 0.8353 0.8353 v -0.85139 -0.85196 h -0.40961 -0.4096 v -0.42569 -0.42569 h -0.4257 -0.42569 v -0.4257 -0.42569 h -0.42569 -0.4257 v -0.42569 -0.42627 h -0.42569 -0.42627 v -0.40903 -0.40961 h 0.42627 0.42569 v -0.42569 -0.4257 h 0.4257 0.42569 v -0.42569 -0.42627 h 0.42569 0.4257 v -0.85139 -0.85138 h -0.85139 -0.85139 v 0.42569 0.42569 h -0.42569 -0.42627 v 0.4257 0.42569 h -0.42569 -0.42569 v 0.42627 0.42569 h -0.85139 -0.85196 v -1.27765 -1.27708 h -0.85139 z m 0,3.40612 h -0.4257 -0.42626 v -0.42569 -0.4257 h -0.4257 -0.42569 v -0.42569 -0.42627 h -2.112383 -2.112955 v 0.42627 0.42569 h -0.425693 -0.425693 v 0.4257 0.42569 H 95.929603 95.50391 v 1.68669 1.68668 h 0.425693 0.425693 v 0.42627 0.42569 h 2.538648 2.538076 v -0.42569 -0.42627 h 0.42569 0.4257 v -0.42569 -0.42569 h 0.42626 0.4257 v -1.261 z m 8.48284,-3.40612 v 0.42569 0.42569 h -0.4257 -0.42569 v 0.4257 0.42569 h 1.70278 1.70334 v 0.42627 0.42569 h -1.27708 -1.27765 v 0.4257 0.42569 h -0.4257 -0.42569 v 1.26099 1.261 h 0.42569 0.4257 v 0.42569 0.42569 h 0.85139 0.85195 v 0.42627 0.42569 h 1.27709 1.27765 v -0.42569 -0.42627 h 0.42569 0.4257 v -0.42569 -0.42569 h 0.42569 0.42569 v -2.11238 -2.11296 h -0.42569 -0.42569 v -0.42569 -0.4257 h -0.85139 -0.85196 v -0.42569 -0.42569 h -1.70278 z m -13.559567,3.40612 h 1.260994 1.260993 v 0.40961 0.40903 h 0.4257 0.42569 v 0.42627 0.42569 h -0.42569 -0.4257 v 0.42569 0.4257 h -1.686686 -1.687262 v -0.85139 -0.85196 h 0.426268 0.425693 v -0.40903 z m 16.965687,0 h 0.42626 0.4257 v 0.8353 0.8353 h -0.4257 -0.42626 v 0.42569 0.4257 h -0.85139 -0.85139 v -0.4257 -0.42569 h -0.42569 -0.42626 v -0.42569 -0.42627 h 1.27765 1.27708 v -0.40903 z m -2.55473,5.07672 v 0.42569 0.42627 h -0.4257 -0.42569 v 0.42569 0.4257 h 0.85139 0.85195 v 0.42569 0.42569 h 1.27709 1.27765 v 0.4257 0.42626 h -1.70335 -1.70334 v 0.4257 0.42569 h -0.4257 -0.42569 v 1.26099 1.261 h 0.42569 0.4257 v 0.42569 0.4257 h 2.98099 2.98043 v -0.4257 -0.42569 h 0.40904 0.4096 v -1.68669 -1.68669 h -0.4096 -0.40904 v -0.42626 -0.4257 h -0.42569 -0.42627 v -0.42569 -0.42569 h -0.42569 -0.42569 v -0.4257 -0.42569 h -1.27709 -1.27765 v -0.42627 -0.42569 h -0.85139 z m -16.114304,0.85196 v 0.42569 0.4257 H 95.929603 95.50391 v 0.42569 0.42569 h -0.425693 -0.426268 v 0.4257 0.42626 h -0.425693 -0.425694 v -0.42626 -0.4257 h -0.425693 -0.425693 v -0.42569 -0.42569 h -0.851961 -0.851386 v 0.42569 0.42569 h -0.425693 -0.425693 v 0.4257 0.42626 h -0.851961 -0.851387 v -0.42626 -0.4257 h -0.409607 -0.409033 v -0.42569 -0.42569 h -0.851961 -0.851387 v 0.42569 0.42569 h -0.425693 -0.425693 v 3.39004 3.39003 h 0.851386 0.851387 v -2.53865 -2.53807 h 0.426267 0.425694 v 0.42569 0.4257 h 0.409033 0.409607 v 0.42569 0.42627 h 1.277654 1.27708 v -0.42627 -0.42569 h 0.851386 0.851961 v 0.8353 0.8353 h 0.425693 0.425693 v 1.27708 1.27765 h 0.851387 0.851961 v -1.27765 -1.27708 h 0.425693 0.425693 v 0.42569 0.4257 h 2.538648 2.538076 v -0.4257 -0.42569 h 0.42569 0.4257 v -2.53865 -2.53807 h -0.4257 -0.42569 v -0.4257 -0.42569 h -2.538076 z m 0.851386,1.70277 h 1.687262 1.686686 v 1.70335 1.70335 h -1.686686 -1.687262 v -0.42627 -0.42569 h -0.425693 -0.425693 v -0.85139 -0.85139 h 0.425693 0.425693 v -0.42626 z m 18.669608,1.70335 h 0.85139 0.85138 v 0.85139 0.85196 h -2.12847 -2.12904 v -0.42627 -0.42569 h 1.27709 1.27765 v -0.4257 z" />
  </g>
</svg>
